# xmcd
#
# Track frame offsets: 
#        150
#        15572
#        36365
#        64460
#        83607
#        97340
#        111945
#        136700
#        154160
#        171402
#        189567
#
# Disc length: 2836 seconds
#
# Revision: 4
# Processed by: cddbd v1.5.2PL0 Copyright (c) Steve Scherf et al.
# Submitted via: ExactAudioCopyFreeDBPlugin 1.0
#
DISCID=950b120b
DTITLE=K.D. Lang - Recollection [Disc 1]
DYEAR=2010
DGENRE=Country
TTITLE0=Trail Of Broken Hearts
TTITLE1=Constant Craving
TTITLE2=The Air That I Breathe
TTITLE3=Helpless
TTITLE4=You're OK
TTITLE5=Western Stars
TTITLE6=The Valley
TTITLE7=Summerfling
TTITLE8=Miss Chatelaine
TTITLE9=I Dream Of Spring
TTITLE10=Hallelujah
EXTD=Nonesuch 7559 79798 9
EXTT0=
EXTT1=
EXTT2=
EXTT3=
EXTT4=
EXTT5=
EXTT6=
EXTT7=
EXTT8=
EXTT9=
EXTT10=
PLAYORDER=
